#!OML:ASF H:\Terrain\Patient Classification 1\Walking\liu\liu.ASF
:FULLY-SPECIFIED
:DEGREES
113
root 8.31337 15.8623 -19.2328 6.44903 3.49419 2.81223
lowerback -4.478 -4.11647 -4.68269
upperback -0.943971 -5.31691 2.36268
thorax 2.181 -2.69979 4.70205
lowerneck -24.2326 -2.89954 -11.6403
upperneck 24.0088 -2.71941 10.462
head 12.2622 -0.904215 5.50594
rclavicle 1.18277e-014 -7.95139e-015
rhumerus -49.739 1.80065 -78.1253
rradius 25.1977
rwrist -7.62105
rhand -27.2762 -18.8436
rfingers 7.12502
rthumb -0.686868 -48.8223
lclavicle 1.18277e-014 -7.95139e-015
lhumerus -19.7082 -21.6806 88.233
lradius 43.0819
lwrist 11.2144
lhand -15.5975 -29.1258
lfingers 7.12502
lthumb 10.5884 0.587481
rfemur -39.0113 2.04001 21.1367
rtibia 43.2176
rfoot -9.49644 3.64829
rtoes -12.3961
lfemur 15.4756 10.3664 -20.4711
ltibia 25.0925
lfoot 7.04647 -4.94819
ltoes -17.5982
114
root 8.28413 15.9065 -19.0586 6.73889 3.65638 1.21133
lowerback -4.48736 -4.02381 -3.24768
upperback -1.13305 -5.26891 2.84229
thorax 1.90221 -2.65904 4.40938
lowerneck -23.9409 -3.05581 -11.8681
upperneck 23.6372 -2.90555 10.5946
head 12.0924 -0.992187 5.54412
rclavicle -8.07563e-014 1.11319e-014
rhumerus -49.2979 1.78084 -78.2378
rradius 25.365
rwrist -8.14896
rhand -27.4529 -20.008
rfingers 7.12502
rthumb -0.857543 -49.986
lclavicle -8.07563e-014 1.11319e-014
lhumerus -20.4351 -21.3933 88.6933
lradius 42.7159
lwrist 11.1337
lhand -15.3969 -29.0021
lfingers 7.12502
lthumb 10.7819 0.701141
rfemur -38.5728 2.35712 23.064
rtibia 43.2239
rfoot -10.4334 3.57273
rtoes -12.2736
lfemur 12.9501 10.3811 -18.515
ltibia 29.3083
lfoot 8.67506 -4.84871
ltoes -18.4522
115
root 8.2647 15.9407 -18.8747 6.85538 3.77643 0.554511
lowerback -4.48315 -3.9133 -2.66565
upperback -1.21545 -5.15045 3.02824
thorax 1.76904 -2.59368 4.28981
lowerneck -23.5177 -3.22728 -12.4075
upperneck 23.2253 -3.10803 11.0683
head 11.8978 -1.07523 5.76567
rclavicle 1.59028e-014 -5.56597e-015
rhumerus -48.974 2.41149 -78.9219
rradius 25.583
rwrist -9.62359
rhand -28.849 -20.8625
rfingers 7.12502
rthumb -2.20592 -50.8308
lclavicle 1.59028e-014 -5.56597e-015
lhumerus -20.9961 -20.9802 89.2179
lradius 42.1775
lwrist 10.5822
lhand -15.2227 -28.8631
lfingers 7.12502
lthumb 10.9499 0.831389
rfemur -37.9329 2.31019 23.9946
rtibia 43.0228
rfoot -10.8975 3.66863
rtoes -11.8939
lfemur 10.638 10.2974 -17.6585
ltibia 33.6597
lfoot 10.0077 -3.92127
ltoes -16.6198
116
root 8.25319 15.9681 -18.6862 6.83967 3.89519 0.16933
lowerback -4.4719 -3.84339 -2.37138
upperback -1.20935 -5.07348 3.18195
thorax 1.75037 -2.55421 4.29087
lowerneck -23.5221 -3.33063 -12.7152
upperneck 23.2112 -3.19397 11.2645
head 11.9155 -1.11672 5.88196
rclavicle 1.26228e-014 2.38542e-015
rhumerus -48.9462 3.95628 -80.1928
rradius 26.2368
rwrist -12.2473
rhand -29.4424 -18.545
rfingers 7.12502
rthumb -2.77899 -48.5066
lclavicle 1.26228e-014 2.38542e-015
lhumerus -21.4322 -20.4178 89.7888
lradius 41.447
lwrist 10.0013
lhand -15.1542 -28.8336
lfingers 7.12502
lthumb 11.016 0.857308
rfemur -36.9329 2.22256 24.583
rtibia 42.4482
rfoot -11.0908 3.72249
rtoes -11.7362
lfemur 8.35205 9.98676 -17.1947
ltibia 38.314
lfoot 10.8901 -2.16935
ltoes -11.3594
117
root 8.24528 15.9898 -18.5017 6.85321 4.09307 -0.578681
lowerback -4.47608 -3.76817 -1.63927
upperback -1.24004 -5.00898 3.40681
thorax 1.67302 -2.5177 4.12024
lowerneck -23.6739 -3.34035 -12.6663
upperneck 23.1968 -3.19506 11.2295
head 11.9381 -1.11318 5.86069
rclavicle 4.77083e-015 -7.95139e-015
rhumerus -49.0374 5.1584 -81.2175
rradius 27.2409
rwrist -14.3087
rhand -29.7385 -18.8707
rfingers 7.12502
rthumb -3.06491 -48.8284
lclavicle 4.77083e-015 -7.95139e-015
lhumerus -21.9559 -19.9703 90.3264
lradius 40.8114
lwrist 9.87351
lhand -14.8431 -28.5697
lfingers 7.12502
lthumb 11.3161 1.10503
rfemur -35.9352 2.10549 25.5556
rtibia 41.9189
rfoot -11.565 3.81455
rtoes -11.2459
lfemur 6.0598 9.8056 -16.2967
ltibia 42.6975
lfoot 11.4846 -0.687223
ltoes -7.31638
118
root 8.23182 16.0097 -18.3322 7.03268 4.20612 -1.32242
lowerback -4.39507 -3.60938 -0.934353
upperback -1.40296 -4.82585 3.57535
thorax 1.40112 -2.41874 3.92535
lowerneck -23.7864 -3.37454 -12.5894
upperneck 23.2207 -3.29251 11.3414
head 11.9844 -1.13304 5.87842
rclavicle -1.26725e-015 0
rhumerus -48.9717 5.43259 -81.6216
rradius 28.1741
rwrist -14.9712
rhand -29.7671 -21.0723
rfingers 7.12502
rthumb -3.09253 -51.0296
lclavicle -1.26725e-015 0
lhumerus -22.6951 -19.687 90.8208
lradius 40.3658
lwrist 9.65201
lhand -14.6232 -27.9234
lfingers 7.12502
lthumb 11.5282 1.73961
rfemur -35.2349 2.14224 26.5157
rtibia 41.4151
rfoot -11.8549 3.80232
rtoes -10.2723
lfemur 3.67139 9.88871 -15.4292
ltibia 46.591
lfoot 11.3494 0.2509
ltoes -8.36858
119
root 8.20338 16.0301 -18.1975 7.41544 4.3359 -2.21892
lowerback -4.13728 -3.46016 -0.306502
upperback -1.64761 -4.64527 3.84064
thorax 0.964179 -2.32158 3.8865
lowerneck -23.9937 -3.50523 -12.4737
upperneck 23.2227 -3.49516 11.3341
head 12.0535 -1.20915 5.82384
rclavicle 4.67144e-014 -1.74931e-014
rhumerus -48.5542 4.85964 -81.3252
rradius 28.8869
rwrist -14.5061
rhand -41.2341 -9.52176
rfingers 7.12502
rthumb -14.1572 -39.0194
lclavicle 4.67144e-014 -1.74931e-014
lhumerus -23.355 -19.0122 91.2612
lradius 39.7691
lwrist 8.99803
lhand -14.7446 -27.4438
lfingers 7.12502
lthumb 11.411 2.22568
rfemur -34.9309 2.61561 27.5888
rtibia 40.8287
rfoot -11.8113 3.37109
rtoes -9.75721
lfemur 0.752054 9.98486 -14.4057
ltibia 50.2921
lfoot 10.7612 1.75852
ltoes -8.38228
120
root 8.20983 16.0728 -17.978 7.4591 4.13625 -2.33921
lowerback -4.54853 -3.24501 -0.122613
upperback -1.55356 -4.37517 3.81545
thorax 1.25551 -2.18884 3.74535
lowerneck -23.7246 -3.69934 -12.6541
upperneck 22.7494 -3.7443 11.4736
head 11.8631 -1.3197 5.8415
rclavicle -3.12589e-014 -5.56597e-015
rhumerus -48.1079 4.4869 -81.1835
rradius 29.3868
rwrist -14.8447
rhand -39.1422 -11.6617
rfingers 7.12502
rthumb -12.1407 -41.2894
lclavicle -3.12589e-014 -5.56597e-015
lhumerus -23.9911 -18.2801 91.7595
lradius 39.1394
lwrist 8.52018
lhand -14.6738 -27.3011
lfingers 7.12502
lthumb 11.4794 2.36461
rfemur -33.8005 2.33425 27.8325
rtibia 40.3362
rfoot -12.2805 3.96906
rtoes -10.72
lfemur -0.889221 10.1134 -14.4239
ltibia 53.2231
lfoot 8.70794 4.05514
ltoes -6.65009
121
root 8.2102 16.1126 -17.7769 7.40186 3.76665 -2.40115
lowerback -4.66809 -2.97389 -0.0679701
upperback -1.53093 -4.01854 3.81022
thorax 1.31728 -2.01063 3.72472
lowerneck -23.1792 -3.82886 -12.8962
upperneck 22.257 -3.90859 11.5988
head 11.6032 -1.40695 5.87554
rclavicle -4.16702e-014 3.97569e-014
rhumerus -47.6258 4.87496 -81.5529
rradius 29.4676
rwrist -16.1118
rhand -32.2327 -15.6789
rfingers 7.12502
rthumb -5.47343 -45.5882
lclavicle -4.16702e-014 3.97569e-014
lhumerus -24.7817 -17.8742 92.268
lradius 38.6117
lwrist 8.41285
lhand -14.4644 -27.266
lfingers 7.12502
lthumb 11.6813 2.38836
rfemur -32.6224 2.25032 28.01
rtibia 39.8345
rfoot -12.7894 4.4939
rtoes -11.8439
lfemur -2.44173 10.3963 -14.4963
ltibia 55.8046
lfoot 5.79309 5.95422
ltoes -8.70695
122
root 8.20602 16.1473 -17.6033 7.17127 3.63674 -2.14889
lowerback -4.313 -2.8277 -0.385694
upperback -1.54282 -3.80253 3.7623
thorax 1.10968 -1.90122 3.88576
lowerneck -23.1253 -3.88575 -12.831
upperneck 22.1954 -3.93558 11.312
head 11.5654 -1.44954 5.74324
rclavicle 1.08835e-014 -7.15625e-015
rhumerus -47.4498 5.93692 -82.2536
rradius 30.1347
rwrist -17.8873
rhand -21.7925 -10.6258
rfingers 7.12502
rthumb 4.6091 -40.5556
lclavicle 1.08835e-014 -7.15625e-015
lhumerus -25.4457 -17.2766 92.7257
lradius 37.8834
lwrist 8.21712
lhand -14.1746 -27.1393
lfingers 7.12502
lthumb 11.9607 2.49902
rfemur -31.3717 1.99904 27.8417
rtibia 39.3506
rfoot -13.218 4.88047
rtoes -11.6459
lfemur -3.91522 10.3687 -14.9201
ltibia 57.983
lfoot 4.06833 7.6618
ltoes -10.5416
123
root 8.20098 16.1899 -17.4348 7.08308 3.71022 -2.08647
lowerback -4.02166 -2.71251 -0.484979
upperback -1.55214 -3.63961 3.72555
thorax 0.929505 -1.8179 3.92772
lowerneck -23.4872 -4.01003 -12.7935
upperneck 22.3582 -4.06421 11.2189
head 11.7127 -1.50873 5.68912
rclavicle -6.01821e-014 3.97569e-015
rhumerus -47.3727 7.10318 -83.2278
rradius 31.1339
rwrist -20.0748
rhand -30.5094 -21.2466
rfingers 7.12502
rthumb -3.80942 -51.1923
lclavicle -6.01821e-014 3.97569e-015
lhumerus -25.8873 -16.9381 93.0781
lradius 37.1069
lwrist 8.4518
lhand -13.5919 -26.7079
lfingers 7.12502
lthumb 12.5225 2.89689
rfemur -30.2883 1.69649 27.8646
rtibia 38.7804
rfoot -13.5497 5.1748
rtoes -10.14
lfemur -5.6521 10.1552 -15.1389
ltibia 60.0465
lfoot 3.29483 9.33562
ltoes -8.40712
124
root 8.19679 16.2322 -17.2648 7.06847 3.63289 -2.34932
lowerback -3.9184 -2.54524 -0.288467
upperback -1.50904 -3.42356 3.76915
thorax 0.89166 -1.70978 3.87782
lowerneck -23.4744 -4.15329 -12.972
upperneck 22.2311 -4.24824 11.4112
head 11.6987 -1.58191 5.75867
rclavicle -1.10822e-014 2.62396e-014
rhumerus -46.5125 7.45213 -83.6735
rradius 31.1171
rwrist -20.8655
rhand -32.9505 -25.3
rfingers 7.12502
rthumb -6.16642 -55.1903
lclavicle -1.10822e-014 2.62396e-014
lhumerus -26.2529 -16.6415 93.3842
lradius 36.2552
lwrist 8.7381
lhand -13.4967 -26.4787
lfingers 7.12502
lthumb 12.6143 3.12043
rfemur -29.2484 1.5551 28.2313
rtibia 38.1669
rfoot -13.9387 5.46971
rtoes -7.61795
lfemur -7.4446 10.2041 -14.9716
ltibia 61.9717
lfoot 2.18444 10.6027
ltoes -6.43699
125
root 8.19284 16.2774 -17.0928 7.08197 3.47491 -2.49963
lowerback -3.95641 -2.404 -0.205322
upperback -1.42937 -3.24097 3.75306
thorax 0.976441 -1.61972 3.82023
lowerneck -23.0254 -4.23385 -13.1502
upperneck 21.7547 -4.40297 11.7034
head 11.4679 -1.63706 5.85296
rclavicle 1.19271e-015 7.95139e-016
rhumerus -45.4307 7.54688 -83.8392
rradius 31.1544
rwrist -21.0925
rhand -32.3792 -24.0598
rfingers 7.12502
rthumb -5.61487 -53.9654
lclavicle 1.19271e-015 7.95139e-016
lhumerus -26.5623 -16.0368 93.5264
lradius 35.1621
lwrist 8.4674
lhand -14.0184 -26.772
lfingers 7.12502
lthumb 12.1114 2.85747
rfemur -28.1934 1.48762 28.4698
rtibia 37.502
rfoot -14.7585 5.73972
rtoes -4.66207
lfemur -9.25461 10.3886 -14.9707
ltibia 63.7122
lfoot 0.50477 11.5233
ltoes -9.21786
